<mxfile host="app.diagrams.net" modified="2024-04-12T14:26:28.276Z" agent="Mozilla/5.0 (Macintosh; Intel Mac OS X 10_15_7) AppleWebKit/537.36 (KHTML, like Gecko) Chrome/123.0.0.0 Safari/537.36" version="24.2.2" etag="OSPdAbGkBkFBXn7oEwfJ" type="github">
  <diagram name="第 1 页" id="Ha3FUOVZbO8p8_SrQB0p">
    <mxGraphModel>
      <root>
        <mxCell id="0" />
        <mxCell id="1" parent="0" />
      </root>
    </mxGraphModel>
  </diagram>
</mxfile>
